<?xml version="1.0" encoding="UTF-8"?>
<svg id="Capa_1" data-name="Capa 1" xmlns="http://www.w3.org/2000/svg" viewBox="0 0 296.03 72.5">
  <defs>
    <style>
      .cls-1 {
        fill: #0d457c;
      }
    </style>
  </defs>
  <g>
    <path class="cls-1" d="M25.76,31.53c-1.27-1.18-.43-3.31,1.3-3.31l7.83-.02c.69,0,1.25-.56,1.25-1.25V9.08c0-.69-.56-1.25-1.25-1.25H15.08c-.69,0-1.25.56-1.25,1.25v47.79c0,.69.56,1.25,1.25,1.25h19.81c.69,0,1.25-.56,1.25-1.25v-15.98c0-.35-.14-.68-.4-.92l-9.99-8.44Z"/>
    <path class="cls-1" d="M52.52,40.98c1.27,1.18.43,3.31-1.3,3.31l-7.83.02c-.69,0-1.25.56-1.25,1.25v17.86c0,.69.56,1.25,1.25,1.25h19.81c.69,0,1.25-.56,1.25-1.25V15.64c0-.69-.56-1.25-1.25-1.25h-19.81c-.69,0-1.25.56-1.25,1.25v15.98c0,.35.14.68.4.92l9.99,8.44Z"/>
  </g>
  <g>
    <polygon class="cls-1" points="88.68 32.93 78.29 32.93 78.29 21.67 70.45 21.67 70.45 50.49 78.29 50.49 78.29 39.24 88.68 39.24 88.68 50.49 96.52 50.49 96.52 21.67 88.68 21.67 88.68 32.93"/>
    <path class="cls-1" d="M117.35,39.46c0,.89-.2,1.69-.59,2.39-.4.7-.94,1.25-1.64,1.64-.7.39-1.5.59-2.4.59s-1.69-.2-2.39-.59c-.7-.39-1.25-.94-1.64-1.64-.4-.7-.59-1.49-.59-2.39v-17.79h-7.85v18.46c0,2.2.52,4.09,1.56,5.69,1.04,1.6,2.49,2.83,4.37,3.7,1.87.87,4.05,1.3,6.55,1.3s4.65-.43,6.52-1.3c1.87-.87,3.33-2.1,4.38-3.7,1.05-1.6,1.57-3.5,1.57-5.69v-18.46h-7.85v17.79Z"/>
    <polygon class="cls-1" points="145.74 38 145.4 38 138.68 21.67 128.92 21.67 128.92 50.49 136.59 50.49 136.59 33.72 136.82 33.72 143.25 50.27 147.88 50.27 154.32 33.83 154.54 33.83 154.54 50.49 162.22 50.49 162.22 21.67 152.45 21.67 145.74 38"/>
    <path class="cls-1" d="M174.52,21.67l-9.54,28.82h8.47l1.67-5.52h9.53l1.67,5.52h8.47l-9.54-28.82h-10.72ZM176.89,39.12l2.88-9.51h.23l2.88,9.51h-5.98Z"/>
    <polygon class="cls-1" points="214.71 36.76 214.48 36.76 204.21 21.67 197.55 21.67 197.55 50.49 205.39 50.49 205.39 35.35 205.56 35.35 216 50.49 222.55 50.49 222.55 21.67 214.71 21.67 214.71 36.76"/>
    <rect class="cls-1" x="227.07" y="33.16" width="13.55" height="5.85"/>
    <rect class="cls-1" x="245.13" y="21.67" width="7.85" height="28.82"/>
    <path class="cls-1" d="M280.44,28.35c-1.18-2.15-2.86-3.8-5.02-4.95-2.17-1.15-4.74-1.72-7.71-1.72h-11.01v28.82h11.12c2.93,0,5.48-.57,7.63-1.72,2.15-1.15,3.82-2.8,4.99-4.95,1.18-2.15,1.76-4.73,1.76-7.73s-.59-5.58-1.77-7.73ZM273.51,40.78c-.53,1.13-1.3,1.92-2.31,2.38-1.01.46-2.23.69-3.66.69h-2.99v-15.54h2.77c1.5,0,2.78.23,3.82.69,1.04.46,1.83,1.25,2.37,2.38.54,1.13.81,2.69.81,4.7s-.27,3.57-.8,4.7Z"/>
  </g>
</svg>
